<?xml version="1.0" standalone="no"?>
<!DOCTYPE svg PUBLIC "-//W3C//DTD SVG 20010904//EN"
 "http://www.w3.org/TR/2001/REC-SVG-20010904/DTD/svg10.dtd">
<svg version="1.0" xmlns="http://www.w3.org/2000/svg"
 width="304.000000pt" height="304.000000pt" viewBox="0 0 304.000000 304.000000"
 preserveAspectRatio="xMidYMid meet">
<metadata>
Created by potrace 1.11, written by Peter Selinger 2001-2013
</metadata>
<g transform="translate(0.000000,304.000000) scale(0.100000,-0.100000)"
fill="#000000" stroke="none">
<path d="M1362 3018 c-24 -4 -64 -10 -90 -13 -26 -3 -81 -15 -122 -26 -41 -11
-82 -22 -91 -24 -29 -6 -192 -76 -248 -107 -376 -206 -644 -549 -746 -957 -13
-53 -27 -118 -30 -146 -3 -27 -8 -61 -11 -74 -6 -29 -6 -250 1 -306 33 -288
140 -551 314 -775 39 -50 199 -212 246 -249 263 -206 600 -324 925 -324 144 0
244 12 394 48 107 25 309 113 418 181 206 129 421 363 531 579 48 94 100 224
112 275 2 8 10 42 18 75 15 58 25 122 34 195 6 56 5 261 -1 305 -3 22 -8 57
-10 77 -8 62 -43 199 -72 278 -90 250 -236 460 -446 641 -72 62 -181 139 -197
139 -5 0 -11 3 -13 8 -3 7 -143 79 -208 106 -70 29 -226 71 -303 81 -16 2 -42
7 -59 10 -45 10 -295 12 -346 3z"/>
</g>
</svg>
